{
	"patcher" : 	{
		"fileversion" : 1,
		"appversion" : 		{
			"major" : 8,
			"minor" : 1,
			"revision" : 0,
			"architecture" : "x64",
			"modernui" : 1
		}
,
		"classnamespace" : "box",
		"rect" : [ 39.0, 79.0, 1339.0, 737.0 ],
		"bglocked" : 0,
		"openinpresentation" : 0,
		"default_fontsize" : 12.0,
		"default_fontface" : 0,
		"default_fontname" : "Arial",
		"gridonopen" : 1,
		"gridsize" : [ 15.0, 15.0 ],
		"gridsnaponopen" : 1,
		"objectsnaponopen" : 1,
		"statusbarvisible" : 2,
		"toolbarvisible" : 1,
		"lefttoolbarpinned" : 0,
		"toptoolbarpinned" : 0,
		"righttoolbarpinned" : 0,
		"bottomtoolbarpinned" : 0,
		"toolbars_unpinned_last_save" : 0,
		"tallnewobj" : 0,
		"boxanimatetime" : 200,
		"enablehscroll" : 1,
		"enablevscroll" : 1,
		"devicewidth" : 0.0,
		"description" : "",
		"digest" : "",
		"tags" : "",
		"style" : "",
		"subpatcher_template" : "",
		"boxes" : [ 			{
				"box" : 				{
					"fontface" : 1,
					"id" : "obj-52",
					"linecount" : 2,
					"maxclass" : "comment",
					"numinlets" : 1,
					"numoutlets" : 0,
					"patching_rect" : [ 197.0, 420.0, 150.0, 33.0 ],
					"text" : "DICTIONARY PROCESSOR"
				}

			}
, 			{
				"box" : 				{
					"fontface" : 1,
					"id" : "obj-49",
					"linecount" : 2,
					"maxclass" : "comment",
					"numinlets" : 1,
					"numoutlets" : 0,
					"patching_rect" : [ 808.0, 18.0, 150.0, 33.0 ],
					"text" : "NODE SCRIPT PROCESSOR"
				}

			}
, 			{
				"box" : 				{
					"id" : "obj-42",
					"maxclass" : "newobj",
					"numinlets" : 1,
					"numoutlets" : 1,
					"outlettype" : [ "" ],
					"patching_rect" : [ 341.0, 426.0, 107.0, 22.0 ],
					"text" : "prepend dictionary"
				}

			}
, 			{
				"box" : 				{
					"id" : "obj-36",
					"maxclass" : "newobj",
					"numinlets" : 2,
					"numoutlets" : 2,
					"outlettype" : [ "", "" ],
					"patching_rect" : [ 66.0, 274.0, 58.0, 22.0 ],
					"text" : "route dict"
				}

			}
, 			{
				"box" : 				{
					"id" : "obj-35",
					"maxclass" : "number",
					"numinlets" : 1,
					"numoutlets" : 2,
					"outlettype" : [ "", "bang" ],
					"parameter_enable" : 0,
					"patching_rect" : [ 1293.0, 724.0, 50.0, 22.0 ]
				}

			}
, 			{
				"box" : 				{
					"id" : "obj-32",
					"maxclass" : "number",
					"numinlets" : 1,
					"numoutlets" : 2,
					"outlettype" : [ "", "bang" ],
					"parameter_enable" : 0,
					"patching_rect" : [ 1220.0, 724.0, 50.0, 22.0 ]
				}

			}
, 			{
				"box" : 				{
					"id" : "obj-26",
					"maxclass" : "newobj",
					"numinlets" : 2,
					"numoutlets" : 4,
					"outlettype" : [ "dictionary", "", "", "" ],
					"patching_rect" : [ 509.0, 433.0, 50.5, 22.0 ],
					"saved_object_attributes" : 					{
						"embed" : 0,
						"parameter_enable" : 0,
						"parameter_mappable" : 0
					}
,
					"text" : "dict"
				}

			}
, 			{
				"box" : 				{
					"id" : "obj-21",
					"maxclass" : "newobj",
					"numinlets" : 2,
					"numoutlets" : 2,
					"outlettype" : [ "", "" ],
					"patching_rect" : [ 1220.0, 647.0, 160.0, 22.0 ],
					"text" : "substitute dictionary process"
				}

			}
, 			{
				"box" : 				{
					"id" : "obj-17",
					"maxclass" : "newobj",
					"numinlets" : 1,
					"numoutlets" : 2,
					"outlettype" : [ "", "" ],
					"patching_rect" : [ 1220.0, 677.0, 82.0, 22.0 ],
					"saved_object_attributes" : 					{
						"filename" : "dict-array.js",
						"parameter_enable" : 0
					}
,
					"text" : "js dict-array.js"
				}

			}
, 			{
				"box" : 				{
					"id" : "obj-12",
					"maxclass" : "toggle",
					"numinlets" : 1,
					"numoutlets" : 1,
					"outlettype" : [ "int" ],
					"parameter_enable" : 0,
					"patching_rect" : [ 15.0, 1070.0, 24.0, 24.0 ]
				}

			}
, 			{
				"box" : 				{
					"id" : "obj-4",
					"maxclass" : "number",
					"numinlets" : 1,
					"numoutlets" : 2,
					"outlettype" : [ "", "bang" ],
					"parameter_enable" : 0,
					"patching_rect" : [ 959.0, 852.0, 50.0, 22.0 ]
				}

			}
, 			{
				"box" : 				{
					"id" : "obj-9",
					"maxclass" : "message",
					"numinlets" : 2,
					"numoutlets" : 1,
					"outlettype" : [ "" ],
					"patching_rect" : [ 509.0, 18.0, 34.0, 22.0 ],
					"text" : "error"
				}

			}
, 			{
				"box" : 				{
					"id" : "obj-48",
					"maxclass" : "message",
					"numinlets" : 2,
					"numoutlets" : 1,
					"outlettype" : [ "" ],
					"patching_rect" : [ 381.0, 18.0, 73.0, 22.0 ],
					"text" : "script status"
				}

			}
, 			{
				"box" : 				{
					"id" : "obj-47",
					"maxclass" : "message",
					"numinlets" : 2,
					"numoutlets" : 1,
					"outlettype" : [ "" ],
					"patching_rect" : [ 239.5, 18.0, 117.0, 22.0 ],
					"text" : "script processStatus"
				}

			}
, 			{
				"box" : 				{
					"bgmode" : 0,
					"border" : 0,
					"clickthrough" : 0,
					"enablehscroll" : 0,
					"enablevscroll" : 0,
					"id" : "obj-46",
					"lockeddragscroll" : 0,
					"maxclass" : "bpatcher",
					"name" : "n4m.monitor.maxpat",
					"numinlets" : 1,
					"numoutlets" : 1,
					"offset" : [ 0.0, 0.0 ],
					"outlettype" : [ "bang" ],
					"patching_rect" : [ 696.0, 161.0, 400.0, 220.0 ],
					"viewvisibility" : 1
				}

			}
, 			{
				"box" : 				{
					"id" : "obj-24",
					"maxclass" : "newobj",
					"numinlets" : 6,
					"numoutlets" : 1,
					"outlettype" : [ "" ],
					"patching_rect" : [ 858.0, 713.0, 123.0, 22.0 ],
					"text" : "scale 0 720 1000 200"
				}

			}
, 			{
				"box" : 				{
					"id" : "obj-27",
					"maxclass" : "number",
					"numinlets" : 1,
					"numoutlets" : 2,
					"outlettype" : [ "", "bang" ],
					"parameter_enable" : 0,
					"patching_rect" : [ 858.0, 618.0, 50.0, 22.0 ]
				}

			}
, 			{
				"box" : 				{
					"id" : "obj-28",
					"maxclass" : "newobj",
					"numinlets" : 1,
					"numoutlets" : 1,
					"outlettype" : [ "" ],
					"patching_rect" : [ 858.0, 556.0, 82.0, 22.0 ],
					"text" : "dict.unpack y:"
				}

			}
, 			{
				"box" : 				{
					"id" : "obj-31",
					"maxclass" : "dict.view",
					"numinlets" : 1,
					"numoutlets" : 0,
					"patching_rect" : [ 1051.0, 556.0, 100.0, 100.0 ]
				}

			}
, 			{
				"box" : 				{
					"id" : "obj-23",
					"maxclass" : "newobj",
					"numinlets" : 1,
					"numoutlets" : 1,
					"outlettype" : [ "" ],
					"patching_rect" : [ 696.0, 85.0, 89.0, 22.0 ],
					"text" : "prepend send1"
				}

			}
, 			{
				"box" : 				{
					"format" : 6,
					"id" : "obj-22",
					"maxclass" : "flonum",
					"numinlets" : 1,
					"numoutlets" : 2,
					"outlettype" : [ "", "bang" ],
					"parameter_enable" : 0,
					"patching_rect" : [ 696.0, 29.0, 50.0, 22.0 ]
				}

			}
, 			{
				"box" : 				{
					"id" : "obj-19",
					"maxclass" : "newobj",
					"numinlets" : 6,
					"numoutlets" : 1,
					"outlettype" : [ "" ],
					"patching_rect" : [ 689.5, 713.0, 103.0, 22.0 ],
					"text" : "scale 0 1280 0. 1."
				}

			}
, 			{
				"box" : 				{
					"id" : "obj-18",
					"maxclass" : "newobj",
					"numinlets" : 6,
					"numoutlets" : 1,
					"outlettype" : [ "" ],
					"patching_rect" : [ 509.0, 713.0, 97.0, 22.0 ],
					"text" : "scale 0 720 0. 1."
				}

			}
, 			{
				"box" : 				{
					"id" : "obj-15",
					"maxclass" : "newobj",
					"numinlets" : 1,
					"numoutlets" : 1,
					"outlettype" : [ "" ],
					"patching_rect" : [ 509.0, 556.0, 82.0, 22.0 ],
					"text" : "dict.unpack y:"
				}

			}
, 			{
				"box" : 				{
					"id" : "obj-33",
					"maxclass" : "newobj",
					"numinlets" : 1,
					"numoutlets" : 1,
					"outlettype" : [ "" ],
					"patching_rect" : [ 604.0, 556.0, 82.0, 22.0 ],
					"text" : "dict.unpack x:"
				}

			}
, 			{
				"box" : 				{
					"id" : "obj-34",
					"maxclass" : "dict.view",
					"numinlets" : 1,
					"numoutlets" : 0,
					"patching_rect" : [ 702.0, 556.0, 100.0, 100.0 ]
				}

			}
, 			{
				"box" : 				{
					"id" : "obj-7",
					"maxclass" : "dict.view",
					"numinlets" : 1,
					"numoutlets" : 0,
					"patching_rect" : [ 341.0, 477.0, 146.0, 552.0 ]
				}

			}
, 			{
				"box" : 				{
					"id" : "obj-5",
					"maxclass" : "newobj",
					"numinlets" : 1,
					"numoutlets" : 2,
					"outlettype" : [ "", "" ],
					"patching_rect" : [ 509.0, 477.0, 561.0, 22.0 ],
					"text" : "dict.unpack leftWrist: rightWrist:"
				}

			}
, 			{
				"box" : 				{
					"id" : "obj-39",
					"maxclass" : "message",
					"numinlets" : 2,
					"numoutlets" : 1,
					"outlettype" : [ "" ],
					"patching_rect" : [ 147.5, 18.0, 63.0, 22.0 ],
					"text" : "script stop"
				}

			}
, 			{
				"box" : 				{
					"id" : "obj-2",
					"maxclass" : "message",
					"numinlets" : 2,
					"numoutlets" : 1,
					"outlettype" : [ "" ],
					"patching_rect" : [ 67.5, 18.0, 64.0, 22.0 ],
					"text" : "script start"
				}

			}
, 			{
				"box" : 				{
					"id" : "obj-40",
					"maxclass" : "newobj",
					"numinlets" : 1,
					"numoutlets" : 2,
					"outlettype" : [ "", "" ],
					"patching_rect" : [ 66.0, 161.0, 556.0, 22.0 ],
					"saved_object_attributes" : 					{
						"autostart" : 1,
						"defer" : 0,
						"node_bin_path" : "",
						"npm_bin_path" : "",
						"watch" : 1
					}
,
					"text" : "node.script /Users/tanchow/Downloads/MMT-Project/Posenet-Max-p5/server.js @watch 1 @autostart 1"
				}

			}
, 			{
				"box" : 				{
					"id" : "obj-8",
					"lastchannelcount" : 0,
					"maxclass" : "live.gain~",
					"numinlets" : 2,
					"numoutlets" : 5,
					"orientation" : 1,
					"outlettype" : [ "signal", "signal", "", "float", "list" ],
					"parameter_enable" : 1,
					"patching_rect" : [ 322.5, 1204.0, 171.0, 47.0 ],
					"saved_attribute_attributes" : 					{
						"valueof" : 						{
							"parameter_mmin" : -70.0,
							"parameter_longname" : "live.gain~",
							"parameter_mmax" : 6.0,
							"parameter_shortname" : "live.gain~",
							"parameter_type" : 0,
							"parameter_unitstyle" : 4
						}

					}
,
					"varname" : "live.gain~"
				}

			}
, 			{
				"box" : 				{
					"id" : "obj-6",
					"maxclass" : "ezdac~",
					"numinlets" : 2,
					"numoutlets" : 0,
					"patching_rect" : [ 322.5, 1368.0, 45.0, 45.0 ]
				}

			}
, 			{
				"box" : 				{
					"id" : "obj-53",
					"maxclass" : "comment",
					"numinlets" : 1,
					"numoutlets" : 0,
					"patching_rect" : [ 1016.5, 852.0, 155.5, 20.0 ],
					"text" : "Frequency Value"
				}

			}
, 			{
				"box" : 				{
					"id" : "obj-51",
					"maxclass" : "comment",
					"numinlets" : 1,
					"numoutlets" : 0,
					"patching_rect" : [ 842.5, 743.0, 150.0, 20.0 ],
					"text" : "Right Wrist Y"
				}

			}
, 			{
				"box" : 				{
					"id" : "obj-50",
					"maxclass" : "comment",
					"numinlets" : 1,
					"numoutlets" : 0,
					"patching_rect" : [ 704.0, 840.0, 150.0, 20.0 ],
					"text" : "Left Wrist X"
				}

			}
, 			{
				"box" : 				{
					"id" : "obj-45",
					"maxclass" : "comment",
					"numinlets" : 1,
					"numoutlets" : 0,
					"patching_rect" : [ 522.0, 840.0, 150.0, 20.0 ],
					"text" : "Left Wrist Y"
				}

			}
, 			{
				"box" : 				{
					"id" : "obj-1",
					"maxclass" : "newobj",
					"numinlets" : 3,
					"numoutlets" : 1,
					"outlettype" : [ "signal" ],
					"patcher" : 					{
						"fileversion" : 1,
						"appversion" : 						{
							"major" : 8,
							"minor" : 1,
							"revision" : 0,
							"architecture" : "x64",
							"modernui" : 1
						}
,
						"classnamespace" : "box",
						"rect" : [ 34.0, 79.0, 1372.0, 807.0 ],
						"bglocked" : 0,
						"openinpresentation" : 0,
						"default_fontsize" : 12.0,
						"default_fontface" : 0,
						"default_fontname" : "Arial",
						"gridonopen" : 1,
						"gridsize" : [ 15.0, 15.0 ],
						"gridsnaponopen" : 1,
						"objectsnaponopen" : 1,
						"statusbarvisible" : 2,
						"toolbarvisible" : 1,
						"lefttoolbarpinned" : 0,
						"toptoolbarpinned" : 0,
						"righttoolbarpinned" : 0,
						"bottomtoolbarpinned" : 0,
						"toolbars_unpinned_last_save" : 0,
						"tallnewobj" : 0,
						"boxanimatetime" : 200,
						"enablehscroll" : 1,
						"enablevscroll" : 1,
						"devicewidth" : 0.0,
						"description" : "",
						"digest" : "",
						"tags" : "",
						"style" : "",
						"subpatcher_template" : "",
						"boxes" : [ 							{
								"box" : 								{
									"comment" : "",
									"id" : "obj-34",
									"index" : 3,
									"maxclass" : "inlet",
									"numinlets" : 0,
									"numoutlets" : 1,
									"outlettype" : [ "" ],
									"patching_rect" : [ 863.0, 8.0, 30.0, 30.0 ]
								}

							}
, 							{
								"box" : 								{
									"comment" : "",
									"id" : "obj-33",
									"index" : 2,
									"maxclass" : "inlet",
									"numinlets" : 0,
									"numoutlets" : 1,
									"outlettype" : [ "" ],
									"patching_rect" : [ 728.0, 8.0, 30.0, 30.0 ]
								}

							}
, 							{
								"box" : 								{
									"bgcolor" : [ 0.322969, 0.31519, 0.325025, 0.690196 ],
									"id" : "obj-47",
									"maxclass" : "comment",
									"numinlets" : 1,
									"numoutlets" : 0,
									"patching_rect" : [ 78.0, 47.0, 156.0, 20.0 ],
									"text" : "FM SYNTH SUBPATCHER"
								}

							}
, 							{
								"box" : 								{
									"id" : "obj-46",
									"linecount" : 2,
									"maxclass" : "comment",
									"numinlets" : 1,
									"numoutlets" : 0,
									"patching_rect" : [ 404.5, 748.0, 150.0, 33.0 ],
									"text" : "Signal output from the FM Synth "
								}

							}
, 							{
								"box" : 								{
									"id" : "obj-45",
									"linecount" : 2,
									"maxclass" : "comment",
									"numinlets" : 1,
									"numoutlets" : 0,
									"patching_rect" : [ 386.5, 8.0, 226.0, 33.0 ],
									"text" : "Line input containing the pitch and velocity information"
								}

							}
, 							{
								"box" : 								{
									"id" : "obj-15",
									"maxclass" : "newobj",
									"numinlets" : 1,
									"numoutlets" : 1,
									"outlettype" : [ "" ],
									"patching_rect" : [ 429.0, 284.0, 34.0, 22.0 ],
									"text" : "mtof"
								}

							}
, 							{
								"box" : 								{
									"bgcolor" : [ 0.165741, 0.364658, 0.14032, 0.63 ],
									"fontface" : 1,
									"id" : "obj-43",
									"maxclass" : "comment",
									"numinlets" : 1,
									"numoutlets" : 0,
									"patching_rect" : [ 176.0, 84.0, 158.0, 20.0 ],
									"text" : "FM SYNTH MODULE"
								}

							}
, 							{
								"box" : 								{
									"id" : "obj-39",
									"linecount" : 3,
									"maxclass" : "comment",
									"numinlets" : 1,
									"numoutlets" : 0,
									"patching_rect" : [ 1032.0, 259.5, 183.0, 47.0 ],
									"text" : "Send the hratio (Harmonicity Ratio) and modulation value (Modulation Index)"
								}

							}
, 							{
								"box" : 								{
									"id" : "obj-38",
									"linecount" : 6,
									"maxclass" : "comment",
									"numinlets" : 1,
									"numoutlets" : 0,
									"patching_rect" : [ 568.5, 503.0, 156.0, 87.0 ],
									"text" : "Create an ADSR envelope with the values\nAttack - 200ms\nDecay - 20 ms\nSustain - 0.8\nRelease - 100ms"
								}

							}
, 							{
								"box" : 								{
									"id" : "obj-37",
									"linecount" : 3,
									"maxclass" : "comment",
									"numinlets" : 1,
									"numoutlets" : 0,
									"patching_rect" : [ 598.0, 198.0, 122.0, 47.0 ],
									"text" : "Scale velocity value before sending to ADSR"
								}

							}
, 							{
								"box" : 								{
									"id" : "obj-36",
									"linecount" : 3,
									"maxclass" : "comment",
									"numinlets" : 1,
									"numoutlets" : 0,
									"patching_rect" : [ 176.0, 202.0, 166.0, 47.0 ],
									"text" : "Subtract pitch value of 12 semitones  from incoming pitch to get a lower octave"
								}

							}
, 							{
								"box" : 								{
									"id" : "obj-7",
									"maxclass" : "newobj",
									"numinlets" : 2,
									"numoutlets" : 1,
									"outlettype" : [ "int" ],
									"patching_rect" : [ 429.0, 249.5, 31.0, 22.0 ],
									"text" : "- 12"
								}

							}
, 							{
								"box" : 								{
									"id" : "obj-32",
									"linecount" : 2,
									"maxclass" : "comment",
									"numinlets" : 1,
									"numoutlets" : 0,
									"patching_rect" : [ 452.5, 469.0, 94.0, 33.0 ],
									"text" : "ADSR Envelope "
								}

							}
, 							{
								"box" : 								{
									"id" : "obj-31",
									"linecount" : 2,
									"maxclass" : "comment",
									"numinlets" : 1,
									"numoutlets" : 0,
									"patching_rect" : [ 1032.0, 197.5, 183.0, 33.0 ],
									"text" : "Scale the MIDI values to range between 0 and 1"
								}

							}
, 							{
								"box" : 								{
									"bgcolor" : [ 0.784314, 0.145098, 0.023529, 0.17 ],
									"fontface" : 1,
									"id" : "obj-29",
									"linecount" : 2,
									"maxclass" : "comment",
									"numinlets" : 1,
									"numoutlets" : 0,
									"patching_rect" : [ 174.5, 428.0, 153.0, 33.0 ],
									"text" : "FILTERING AND DYNAMICS"
								}

							}
, 							{
								"box" : 								{
									"id" : "obj-27",
									"linecount" : 2,
									"maxclass" : "comment",
									"numinlets" : 1,
									"numoutlets" : 0,
									"patching_rect" : [ 176.0, 332.0, 164.0, 33.0 ],
									"text" : "FM Synthesis subpatch with FM Modulation"
								}

							}
, 							{
								"box" : 								{
									"id" : "obj-26",
									"linecount" : 4,
									"maxclass" : "comment",
									"numinlets" : 1,
									"numoutlets" : 0,
									"patching_rect" : [ 175.5, 469.0, 150.0, 60.0 ],
									"text" : "Low pass resonance filter with cutoff Frequency of 1000Hz and Resonance value of 0.9"
								}

							}
, 							{
								"box" : 								{
									"id" : "obj-21",
									"linecount" : 2,
									"maxclass" : "comment",
									"numinlets" : 1,
									"numoutlets" : 0,
									"patching_rect" : [ 404.5, 120.0, 183.0, 33.0 ],
									"text" : "Recieve the Harmonicity Ratio and Modulation Index"
								}

							}
, 							{
								"box" : 								{
									"id" : "obj-17",
									"linecount" : 3,
									"maxclass" : "comment",
									"numinlets" : 1,
									"numoutlets" : 0,
									"patching_rect" : [ 176.0, 143.0, 150.0, 47.0 ],
									"text" : "Retrieve the pitch and velocity values from the incoming input"
								}

							}
, 							{
								"box" : 								{
									"id" : "obj-16",
									"linecount" : 2,
									"maxclass" : "comment",
									"numinlets" : 1,
									"numoutlets" : 0,
									"patching_rect" : [ 170.0, 266.0, 150.0, 33.0 ],
									"text" : "Convert the midi value to frequency"
								}

							}
, 							{
								"box" : 								{
									"id" : "obj-12",
									"linecount" : 2,
									"maxclass" : "comment",
									"numinlets" : 1,
									"numoutlets" : 0,
									"patching_rect" : [ 1032.0, 124.5, 177.0, 33.0 ],
									"text" : "Read controller value outputs from Control Knobs C1 and C2"
								}

							}
, 							{
								"box" : 								{
									"bgcolor" : [ 0.52549, 0.062745, 0.003922, 0.56 ],
									"fontface" : 1,
									"id" : "obj-11",
									"maxclass" : "comment",
									"numinlets" : 1,
									"numoutlets" : 0,
									"patching_rect" : [ 758.0, 83.5, 179.0, 20.0 ],
									"text" : "MIDI CONTROL INTERFACE"
								}

							}
, 							{
								"box" : 								{
									"id" : "obj-25",
									"maxclass" : "newobj",
									"numinlets" : 0,
									"numoutlets" : 1,
									"outlettype" : [ "" ],
									"patching_rect" : [ 511.5, 160.0, 76.0, 22.0 ],
									"text" : "receive mod"
								}

							}
, 							{
								"box" : 								{
									"id" : "obj-23",
									"maxclass" : "newobj",
									"numinlets" : 0,
									"numoutlets" : 1,
									"outlettype" : [ "" ],
									"patching_rect" : [ 404.5, 160.0, 83.0, 22.0 ],
									"text" : "receive hratio"
								}

							}
, 							{
								"box" : 								{
									"id" : "obj-24",
									"maxclass" : "newobj",
									"numinlets" : 1,
									"numoutlets" : 0,
									"patching_rect" : [ 909.0, 259.5, 99.0, 22.0 ],
									"text" : "send mod"
								}

							}
, 							{
								"box" : 								{
									"id" : "obj-3",
									"maxclass" : "newobj",
									"numinlets" : 1,
									"numoutlets" : 0,
									"patching_rect" : [ 784.0, 259.5, 99.0, 22.0 ],
									"text" : "send hratio"
								}

							}
, 							{
								"box" : 								{
									"id" : "obj-20",
									"maxclass" : "newobj",
									"numinlets" : 6,
									"numoutlets" : 1,
									"outlettype" : [ "" ],
									"patching_rect" : [ 909.0, 197.5, 99.0, 22.0 ],
									"text" : "scale 0 127 0. 1."
								}

							}
, 							{
								"box" : 								{
									"id" : "obj-4",
									"maxclass" : "newobj",
									"numinlets" : 6,
									"numoutlets" : 1,
									"outlettype" : [ "" ],
									"patching_rect" : [ 784.0, 197.5, 99.0, 22.0 ],
									"text" : "scale 0 127 0. 1."
								}

							}
, 							{
								"box" : 								{
									"id" : "obj-6",
									"maxclass" : "newobj",
									"numinlets" : 1,
									"numoutlets" : 2,
									"outlettype" : [ "int", "int" ],
									"patching_rect" : [ 909.0, 124.5, 99.0, 22.0 ],
									"text" : "ctlin 75"
								}

							}
, 							{
								"box" : 								{
									"id" : "obj-13",
									"maxclass" : "newobj",
									"numinlets" : 1,
									"numoutlets" : 2,
									"outlettype" : [ "int", "int" ],
									"patching_rect" : [ 784.0, 124.5, 99.0, 22.0 ],
									"text" : "ctlin 73"
								}

							}
, 							{
								"box" : 								{
									"id" : "obj-22",
									"maxclass" : "newobj",
									"numinlets" : 2,
									"numoutlets" : 1,
									"outlettype" : [ "signal" ],
									"patching_rect" : [ 361.5, 549.0, 29.5, 22.0 ],
									"text" : "*~"
								}

							}
, 							{
								"box" : 								{
									"format" : 6,
									"id" : "obj-40",
									"maxclass" : "flonum",
									"numinlets" : 1,
									"numoutlets" : 2,
									"outlettype" : [ "", "bang" ],
									"parameter_enable" : 0,
									"patching_rect" : [ 640.5, 255.0, 37.0, 22.0 ]
								}

							}
, 							{
								"box" : 								{
									"id" : "obj-19",
									"maxclass" : "newobj",
									"numinlets" : 5,
									"numoutlets" : 4,
									"outlettype" : [ "signal", "signal", "", "" ],
									"patching_rect" : [ 553.0, 469.0, 124.0, 22.0 ],
									"text" : "adsr~ 200 20 0.8 100"
								}

							}
, 							{
								"box" : 								{
									"id" : "obj-18",
									"maxclass" : "newobj",
									"numinlets" : 2,
									"numoutlets" : 1,
									"outlettype" : [ "float" ],
									"patching_rect" : [ 553.5, 214.0, 41.0, 22.0 ],
									"text" : "/ 127."
								}

							}
, 							{
								"box" : 								{
									"id" : "obj-14",
									"maxclass" : "newobj",
									"numinlets" : 4,
									"numoutlets" : 1,
									"outlettype" : [ "signal" ],
									"patcher" : 									{
										"fileversion" : 1,
										"appversion" : 										{
											"major" : 8,
											"minor" : 1,
											"revision" : 0,
											"architecture" : "x64",
											"modernui" : 1
										}
,
										"classnamespace" : "box",
										"rect" : [ 34.0, 79.0, 1372.0, 787.0 ],
										"bglocked" : 0,
										"openinpresentation" : 0,
										"default_fontsize" : 12.0,
										"default_fontface" : 0,
										"default_fontname" : "Arial",
										"gridonopen" : 1,
										"gridsize" : [ 15.0, 15.0 ],
										"gridsnaponopen" : 1,
										"objectsnaponopen" : 1,
										"statusbarvisible" : 2,
										"toolbarvisible" : 1,
										"lefttoolbarpinned" : 0,
										"toptoolbarpinned" : 0,
										"righttoolbarpinned" : 0,
										"bottomtoolbarpinned" : 0,
										"toolbars_unpinned_last_save" : 0,
										"tallnewobj" : 0,
										"boxanimatetime" : 200,
										"enablehscroll" : 1,
										"enablevscroll" : 1,
										"devicewidth" : 0.0,
										"description" : "",
										"digest" : "",
										"tags" : "",
										"style" : "",
										"subpatcher_template" : "",
										"boxes" : [ 											{
												"box" : 												{
													"id" : "obj-48",
													"maxclass" : "comment",
													"numinlets" : 1,
													"numoutlets" : 0,
													"patching_rect" : [ 233.25, 40.0, 150.0, 20.0 ],
													"text" : "MIDI Input value"
												}

											}
, 											{
												"box" : 												{
													"id" : "obj-46",
													"linecount" : 2,
													"maxclass" : "comment",
													"numinlets" : 1,
													"numoutlets" : 0,
													"patching_rect" : [ 1381.0, 40.0, 150.0, 33.0 ],
													"text" : "MIDI Input value one octave lower"
												}

											}
, 											{
												"box" : 												{
													"id" : "obj-44",
													"maxclass" : "comment",
													"numinlets" : 1,
													"numoutlets" : 0,
													"patching_rect" : [ 899.0, 1467.0, 150.0, 20.0 ],
													"text" : "Add the signals "
												}

											}
, 											{
												"box" : 												{
													"id" : "obj-39",
													"maxclass" : "comment",
													"numinlets" : 1,
													"numoutlets" : 0,
													"patching_rect" : [ 897.0, 1432.0, 150.0, 20.0 ],
													"text" : "Scale the values by 50%"
												}

											}
, 											{
												"box" : 												{
													"id" : "obj-15",
													"linecount" : 3,
													"maxclass" : "comment",
													"numinlets" : 1,
													"numoutlets" : 0,
													"patching_rect" : [ 1142.0, 1297.0, 202.0, 47.0 ],
													"text" : "Adding the sine wave signal with frequency an octave value below the MIDI input value"
												}

											}
, 											{
												"box" : 												{
													"comment" : "",
													"id" : "obj-38",
													"index" : 4,
													"maxclass" : "inlet",
													"numinlets" : 0,
													"numoutlets" : 1,
													"outlettype" : [ "" ],
													"patching_rect" : [ 1337.0, 40.0, 30.0, 30.0 ]
												}

											}
, 											{
												"box" : 												{
													"id" : "obj-32",
													"maxclass" : "newobj",
													"numinlets" : 2,
													"numoutlets" : 1,
													"outlettype" : [ "signal" ],
													"patching_rect" : [ 783.0, 1468.0, 29.5, 22.0 ],
													"text" : "+~"
												}

											}
, 											{
												"box" : 												{
													"id" : "obj-27",
													"maxclass" : "newobj",
													"numinlets" : 2,
													"numoutlets" : 1,
													"outlettype" : [ "signal" ],
													"patching_rect" : [ 727.25, 1432.0, 42.0, 22.0 ],
													"text" : "*~ 0.5"
												}

											}
, 											{
												"box" : 												{
													"id" : "obj-20",
													"maxclass" : "newobj",
													"numinlets" : 2,
													"numoutlets" : 1,
													"outlettype" : [ "signal" ],
													"patching_rect" : [ 841.25, 1432.0, 42.0, 22.0 ],
													"text" : "*~ 0.5"
												}

											}
, 											{
												"box" : 												{
													"id" : "obj-9",
													"maxclass" : "newobj",
													"numinlets" : 2,
													"numoutlets" : 1,
													"outlettype" : [ "signal" ],
													"patching_rect" : [ 1067.0, 1297.0, 45.0, 22.0 ],
													"text" : "cycle~"
												}

											}
, 											{
												"box" : 												{
													"id" : "obj-8",
													"linecount" : 2,
													"maxclass" : "comment",
													"numinlets" : 1,
													"numoutlets" : 0,
													"patching_rect" : [ 1147.0, 40.0, 152.0, 47.0 ],
													"text" : "Input Controlling the Modulation Index\n"
												}

											}
, 											{
												"box" : 												{
													"id" : "obj-5",
													"linecount" : 2,
													"maxclass" : "comment",
													"numinlets" : 1,
													"numoutlets" : 0,
													"patching_rect" : [ 666.75, 34.0, 150.0, 33.0 ],
													"text" : "Input controlling the Harmonicity"
												}

											}
, 											{
												"box" : 												{
													"comment" : "",
													"id" : "obj-2",
													"index" : 3,
													"maxclass" : "inlet",
													"numinlets" : 0,
													"numoutlets" : 1,
													"outlettype" : [ "" ],
													"patching_rect" : [ 1095.0, 40.0, 30.0, 30.0 ]
												}

											}
, 											{
												"box" : 												{
													"comment" : "",
													"id" : "obj-1",
													"index" : 2,
													"maxclass" : "inlet",
													"numinlets" : 0,
													"numoutlets" : 1,
													"outlettype" : [ "" ],
													"patching_rect" : [ 630.25, 34.0, 30.0, 30.0 ]
												}

											}
, 											{
												"box" : 												{
													"id" : "obj-13",
													"linecount" : 5,
													"maxclass" : "comment",
													"numinlets" : 1,
													"numoutlets" : 0,
													"patching_rect" : [ 832.0, 240.5, 153.0, 74.0 ],
													"text" : "Harmonicity = modFreq/carFreq\n\nBecause HR = Fm/Fc it is also true that HR*FC = FM"
												}

											}
, 											{
												"box" : 												{
													"id" : "obj-67",
													"maxclass" : "comment",
													"numinlets" : 1,
													"numoutlets" : 0,
													"patching_rect" : [ 239.25, 1153.0, 150.0, 20.0 ],
													"text" : "6"
												}

											}
, 											{
												"box" : 												{
													"id" : "obj-66",
													"linecount" : 12,
													"maxclass" : "comment",
													"numinlets" : 1,
													"numoutlets" : 0,
													"patching_rect" : [ 50.0, 1161.0, 156.0, 167.0 ],
													"text" : "1. We are creating a Base Frequency number.\n\n2. We are creating a modulating Signal.\n\n3. We are adding these together. \n\n4. We pass these to the frequency input of the Carrier signal"
												}

											}
, 											{
												"box" : 												{
													"id" : "obj-65",
													"linecount" : 3,
													"maxclass" : "comment",
													"numinlets" : 1,
													"numoutlets" : 0,
													"patching_rect" : [ 334.25, 1289.0, 322.0, 47.0 ],
													"text" : "This is where the FM acutally Happens. Base frequency + Modulator SIgnal are passed to the frequency of the Carrier signal"
												}

											}
, 											{
												"box" : 												{
													"fontface" : 1,
													"id" : "obj-63",
													"maxclass" : "comment",
													"numinlets" : 1,
													"numoutlets" : 0,
													"patching_rect" : [ 142.25, 144.0, 172.0, 20.0 ],
													"text" : "Carrier Signal Chain"
												}

											}
, 											{
												"box" : 												{
													"id" : "obj-60",
													"linecount" : 2,
													"maxclass" : "comment",
													"numinlets" : 1,
													"numoutlets" : 0,
													"patching_rect" : [ 319.25, 1189.0, 312.0, 33.0 ],
													"text" : "Adding the Modulator Signal to the frequency of number to be passed to the carrier"
												}

											}
, 											{
												"box" : 												{
													"id" : "obj-58",
													"linecount" : 2,
													"maxclass" : "comment",
													"numinlets" : 1,
													"numoutlets" : 0,
													"patching_rect" : [ 774.5, 788.0, 151.0, 33.0 ],
													"text" : "This effects the amplitude of the modulator signal"
												}

											}
, 											{
												"box" : 												{
													"id" : "obj-57",
													"linecount" : 2,
													"maxclass" : "comment",
													"numinlets" : 1,
													"numoutlets" : 0,
													"patching_rect" : [ 774.5, 746.0, 150.0, 33.0 ],
													"text" : "Multiply Modulator by this number"
												}

											}
, 											{
												"box" : 												{
													"id" : "obj-53",
													"maxclass" : "comment",
													"numinlets" : 1,
													"numoutlets" : 0,
													"patching_rect" : [ 787.25, 717.5, 150.0, 20.0 ],
													"text" : "Number"
												}

											}
, 											{
												"box" : 												{
													"id" : "obj-52",
													"maxclass" : "comment",
													"numinlets" : 1,
													"numoutlets" : 0,
													"patching_rect" : [ 787.25, 684.0, 152.0, 20.0 ],
													"text" : "5 Create Modulation Index"
												}

											}
, 											{
												"box" : 												{
													"id" : "obj-49",
													"linecount" : 2,
													"maxclass" : "comment",
													"numinlets" : 1,
													"numoutlets" : 0,
													"patching_rect" : [ 674.25, 614.5, 235.0, 33.0 ],
													"text" : "Freq of this cycle = Carrier X harmonicity number"
												}

											}
, 											{
												"box" : 												{
													"id" : "obj-47",
													"maxclass" : "comment",
													"numinlets" : 1,
													"numoutlets" : 0,
													"patching_rect" : [ 681.25, 585.5, 214.0, 20.0 ],
													"text" : "Create Mod Signal using cycle~"
												}

											}
, 											{
												"box" : 												{
													"id" : "obj-45",
													"maxclass" : "comment",
													"numinlets" : 1,
													"numoutlets" : 0,
													"patching_rect" : [ 624.5, 555.0, 150.0, 20.0 ],
													"text" : "4 "
												}

											}
, 											{
												"box" : 												{
													"id" : "obj-42",
													"maxclass" : "comment",
													"numinlets" : 1,
													"numoutlets" : 0,
													"patching_rect" : [ 678.5, 440.0, 150.0, 20.0 ],
													"text" : "3"
												}

											}
, 											{
												"box" : 												{
													"id" : "obj-33",
													"maxclass" : "comment",
													"numinlets" : 1,
													"numoutlets" : 0,
													"patching_rect" : [ 673.25, 353.0, 150.0, 20.0 ],
													"text" : "Convert to signal"
												}

											}
, 											{
												"box" : 												{
													"id" : "obj-31",
													"maxclass" : "comment",
													"numinlets" : 1,
													"numoutlets" : 0,
													"patching_rect" : [ 620.0, 221.5, 150.0, 34.0 ],
													"text" : "2\n"
												}

											}
, 											{
												"box" : 												{
													"id" : "obj-25",
													"maxclass" : "comment",
													"numinlets" : 1,
													"numoutlets" : 0,
													"patching_rect" : [ 233.25, 388.0, 150.0, 20.0 ],
													"text" : "Add to "
												}

											}
, 											{
												"box" : 												{
													"id" : "obj-24",
													"maxclass" : "comment",
													"numinlets" : 1,
													"numoutlets" : 0,
													"patching_rect" : [ 233.25, 324.0, 150.0, 20.0 ],
													"text" : "Convert to signal"
												}

											}
, 											{
												"box" : 												{
													"id" : "obj-23",
													"maxclass" : "comment",
													"numinlets" : 1,
													"numoutlets" : 0,
													"patching_rect" : [ 184.25, 212.0, 150.0, 20.0 ],
													"text" : "Start with carrier freq"
												}

											}
, 											{
												"box" : 												{
													"id" : "obj-16",
													"maxclass" : "comment",
													"numinlets" : 1,
													"numoutlets" : 0,
													"patching_rect" : [ 142.25, 212.0, 27.0, 20.0 ],
													"text" : "1"
												}

											}
, 											{
												"box" : 												{
													"id" : "obj-7",
													"maxclass" : "comment",
													"numinlets" : 1,
													"numoutlets" : 0,
													"patching_rect" : [ 682.25, 470.0, 132.0, 20.0 ],
													"text" : "Carrier X HR number"
												}

											}
, 											{
												"box" : 												{
													"id" : "obj-3",
													"maxclass" : "newobj",
													"numinlets" : 1,
													"numoutlets" : 1,
													"outlettype" : [ "signal" ],
													"patching_rect" : [ 630.25, 348.0, 34.0, 22.0 ],
													"text" : "sig~"
												}

											}
, 											{
												"box" : 												{
													"id" : "obj-40",
													"maxclass" : "newobj",
													"numinlets" : 1,
													"numoutlets" : 1,
													"outlettype" : [ "signal" ],
													"patching_rect" : [ 187.25, 324.0, 34.0, 22.0 ],
													"text" : "sig~"
												}

											}
, 											{
												"box" : 												{
													"format" : 6,
													"id" : "obj-37",
													"maxclass" : "flonum",
													"numinlets" : 1,
													"numoutlets" : 2,
													"outlettype" : [ "", "bang" ],
													"parameter_enable" : 0,
													"patching_rect" : [ 727.25, 715.5, 50.0, 22.0 ]
												}

											}
, 											{
												"box" : 												{
													"id" : "obj-36",
													"maxclass" : "newobj",
													"numinlets" : 2,
													"numoutlets" : 1,
													"outlettype" : [ "signal" ],
													"patching_rect" : [ 666.75, 799.0, 79.5, 22.0 ],
													"text" : "*~"
												}

											}
, 											{
												"box" : 												{
													"id" : "obj-35",
													"maxclass" : "newobj",
													"numinlets" : 2,
													"numoutlets" : 1,
													"outlettype" : [ "signal" ],
													"patching_rect" : [ 727.25, 758.0, 33.0, 22.0 ],
													"text" : "*~ 0"
												}

											}
, 											{
												"box" : 												{
													"id" : "obj-34",
													"maxclass" : "comment",
													"numinlets" : 1,
													"numoutlets" : 0,
													"patching_rect" : [ 814.5, 555.0, 67.5, 20.0 ],
													"text" : "Modulator"
												}

											}
, 											{
												"box" : 												{
													"id" : "obj-30",
													"maxclass" : "newobj",
													"numinlets" : 2,
													"numoutlets" : 1,
													"outlettype" : [ "signal" ],
													"patching_rect" : [ 638.75, 470.0, 33.0, 22.0 ],
													"text" : "*~ 0"
												}

											}
, 											{
												"box" : 												{
													"format" : 6,
													"id" : "obj-29",
													"maxclass" : "flonum",
													"numinlets" : 1,
													"numoutlets" : 2,
													"outlettype" : [ "", "bang" ],
													"parameter_enable" : 0,
													"patching_rect" : [ 630.25, 302.5, 50.0, 22.0 ]
												}

											}
, 											{
												"box" : 												{
													"id" : "obj-28",
													"linecount" : 2,
													"maxclass" : "comment",
													"numinlets" : 1,
													"numoutlets" : 0,
													"patching_rect" : [ 630.25, 247.5, 174.0, 47.0 ],
													"text" : "Input Number to define Harmonicity\n"
												}

											}
, 											{
												"box" : 												{
													"id" : "obj-22",
													"linecount" : 2,
													"maxclass" : "comment",
													"numinlets" : 1,
													"numoutlets" : 0,
													"patching_rect" : [ 217.75, 590.0, 153.0, 33.0 ],
													"text" : "Mod Freq+ Base freq to Carrier Freq"
												}

											}
, 											{
												"box" : 												{
													"id" : "obj-21",
													"linecount" : 2,
													"maxclass" : "comment",
													"numinlets" : 1,
													"numoutlets" : 0,
													"patching_rect" : [ 221.25, 464.0, 111.0, 33.0 ],
													"text" : "Add base freq with modulator Freq"
												}

											}
, 											{
												"box" : 												{
													"id" : "obj-19",
													"maxclass" : "newobj",
													"numinlets" : 2,
													"numoutlets" : 1,
													"outlettype" : [ "signal" ],
													"patching_rect" : [ 277.75, 1189.0, 29.5, 22.0 ],
													"text" : "+~"
												}

											}
, 											{
												"box" : 												{
													"id" : "obj-18",
													"maxclass" : "newobj",
													"numinlets" : 2,
													"numoutlets" : 1,
													"outlettype" : [ "signal" ],
													"patching_rect" : [ 624.5, 590.0, 45.0, 22.0 ],
													"text" : "cycle~"
												}

											}
, 											{
												"box" : 												{
													"id" : "obj-17",
													"maxclass" : "newobj",
													"numinlets" : 2,
													"numoutlets" : 1,
													"outlettype" : [ "signal" ],
													"patching_rect" : [ 277.75, 1293.0, 45.0, 22.0 ],
													"text" : "cycle~"
												}

											}
, 											{
												"box" : 												{
													"fontface" : 1,
													"id" : "obj-14",
													"maxclass" : "comment",
													"numinlets" : 1,
													"numoutlets" : 0,
													"patching_rect" : [ 608.5, 143.0, 173.0, 20.0 ],
													"text" : "Modulator Signal Chain"
												}

											}
, 											{
												"box" : 												{
													"id" : "obj-6",
													"maxclass" : "comment",
													"numinlets" : 1,
													"numoutlets" : 0,
													"patching_rect" : [ 246.25, 250.5, 150.0, 34.0 ],
													"text" : "Carrier\n"
												}

											}
, 											{
												"box" : 												{
													"format" : 6,
													"id" : "obj-4",
													"maxclass" : "flonum",
													"numinlets" : 1,
													"numoutlets" : 2,
													"outlettype" : [ "", "bang" ],
													"parameter_enable" : 0,
													"patching_rect" : [ 187.25, 244.5, 50.0, 22.0 ]
												}

											}
, 											{
												"box" : 												{
													"angle" : 270.0,
													"grad1" : [ 0.960784, 0.827451, 0.156863, 1.0 ],
													"grad2" : [ 0.639216, 0.458824, 0.070588, 1.0 ],
													"id" : "obj-10",
													"maxclass" : "panel",
													"mode" : 1,
													"numinlets" : 1,
													"numoutlets" : 0,
													"patching_rect" : [ 142.25, 208.0, 257.0, 206.0 ],
													"proportion" : 0.39
												}

											}
, 											{
												"box" : 												{
													"angle" : 270.0,
													"grad1" : [ 0.952941, 0.564706, 0.098039, 1.0 ],
													"grad2" : [ 0.862745, 0.741176, 0.137255, 1.0 ],
													"id" : "obj-26",
													"maxclass" : "panel",
													"mode" : 1,
													"numinlets" : 1,
													"numoutlets" : 0,
													"patching_rect" : [ 620.0, 216.0, 389.5, 213.0 ],
													"proportion" : 0.39
												}

											}
, 											{
												"box" : 												{
													"angle" : 270.0,
													"grad1" : [ 0.952941, 0.564706, 0.098039, 1.0 ],
													"grad2" : [ 0.862745, 0.741176, 0.137255, 1.0 ],
													"id" : "obj-41",
													"maxclass" : "panel",
													"mode" : 1,
													"numinlets" : 1,
													"numoutlets" : 0,
													"patching_rect" : [ 620.0, 440.0, 389.5, 88.0 ],
													"proportion" : 0.39
												}

											}
, 											{
												"box" : 												{
													"angle" : 270.0,
													"grad1" : [ 0.952941, 0.564706, 0.098039, 1.0 ],
													"grad2" : [ 0.960784, 0.827451, 0.156863, 1.0 ],
													"id" : "obj-43",
													"maxclass" : "panel",
													"mode" : 1,
													"numinlets" : 1,
													"numoutlets" : 0,
													"patching_rect" : [ 620.0, 540.5, 389.5, 112.5 ],
													"proportion" : 0.39
												}

											}
, 											{
												"box" : 												{
													"angle" : 270.0,
													"grad1" : [ 0.952941, 0.564706, 0.098039, 1.0 ],
													"grad2" : [ 0.862745, 0.741176, 0.137255, 1.0 ],
													"id" : "obj-50",
													"maxclass" : "panel",
													"mode" : 1,
													"numinlets" : 1,
													"numoutlets" : 0,
													"patching_rect" : [ 620.0, 677.0, 389.5, 216.0 ],
													"proportion" : 0.39
												}

											}
, 											{
												"box" : 												{
													"angle" : 270.0,
													"grad1" : [ 0.952941, 0.564706, 0.098039, 1.0 ],
													"grad2" : [ 0.960784, 0.827451, 0.156863, 1.0 ],
													"id" : "obj-59",
													"maxclass" : "panel",
													"mode" : 1,
													"numinlets" : 1,
													"numoutlets" : 0,
													"patching_rect" : [ 222.75, 1132.0, 547.5, 283.0 ],
													"proportion" : 0.39
												}

											}
, 											{
												"box" : 												{
													"angle" : 270.0,
													"grad1" : [ 0.900537, 0.724439, 0.391741, 1.0 ],
													"grad2" : [ 0.086275, 0.309804, 0.52549, 1.0 ],
													"id" : "obj-62",
													"maxclass" : "panel",
													"mode" : 1,
													"numinlets" : 1,
													"numoutlets" : 0,
													"patching_rect" : [ 589.5, 112.0, 488.5, 906.0 ],
													"proportion" : 0.39
												}

											}
, 											{
												"box" : 												{
													"angle" : 270.0,
													"grad1" : [ 0.847331, 0.751866, 0.521653, 1.0 ],
													"grad2" : [ 0.086275, 0.309804, 0.52549, 1.0 ],
													"id" : "obj-64",
													"maxclass" : "panel",
													"mode" : 1,
													"numinlets" : 1,
													"numoutlets" : 0,
													"patching_rect" : [ 95.75, 112.0, 442.5, 906.0 ],
													"proportion" : 0.39
												}

											}
, 											{
												"box" : 												{
													"comment" : "",
													"id" : "obj-11",
													"index" : 1,
													"maxclass" : "inlet",
													"numinlets" : 0,
													"numoutlets" : 1,
													"outlettype" : [ "" ],
													"patching_rect" : [ 187.25, 40.0, 30.0, 30.0 ]
												}

											}
, 											{
												"box" : 												{
													"comment" : "",
													"id" : "obj-12",
													"index" : 1,
													"maxclass" : "outlet",
													"numinlets" : 1,
													"numoutlets" : 0,
													"patching_rect" : [ 277.75, 1475.0, 30.0, 30.0 ]
												}

											}
 ],
										"lines" : [ 											{
												"patchline" : 												{
													"destination" : [ "obj-29", 0 ],
													"source" : [ "obj-1", 0 ]
												}

											}
, 											{
												"patchline" : 												{
													"destination" : [ "obj-4", 0 ],
													"source" : [ "obj-11", 0 ]
												}

											}
, 											{
												"patchline" : 												{
													"destination" : [ "obj-12", 0 ],
													"source" : [ "obj-17", 0 ]
												}

											}
, 											{
												"patchline" : 												{
													"destination" : [ "obj-36", 0 ],
													"midpoints" : [ 634.0, 705.0, 676.25, 705.0 ],
													"source" : [ "obj-18", 0 ]
												}

											}
, 											{
												"patchline" : 												{
													"destination" : [ "obj-17", 0 ],
													"source" : [ "obj-19", 0 ]
												}

											}
, 											{
												"patchline" : 												{
													"destination" : [ "obj-37", 0 ],
													"midpoints" : [ 1104.5, 669.0, 736.75, 669.0 ],
													"source" : [ "obj-2", 0 ]
												}

											}
, 											{
												"patchline" : 												{
													"destination" : [ "obj-32", 1 ],
													"source" : [ "obj-20", 0 ]
												}

											}
, 											{
												"patchline" : 												{
													"destination" : [ "obj-32", 0 ],
													"source" : [ "obj-27", 0 ]
												}

											}
, 											{
												"patchline" : 												{
													"destination" : [ "obj-3", 0 ],
													"source" : [ "obj-29", 0 ]
												}

											}
, 											{
												"patchline" : 												{
													"destination" : [ "obj-30", 1 ],
													"midpoints" : [ 639.75, 419.5, 662.25, 419.5 ],
													"source" : [ "obj-3", 0 ]
												}

											}
, 											{
												"patchline" : 												{
													"destination" : [ "obj-18", 0 ],
													"midpoints" : [ 648.25, 540.5, 634.0, 540.5 ],
													"order" : 1,
													"source" : [ "obj-30", 0 ]
												}

											}
, 											{
												"patchline" : 												{
													"destination" : [ "obj-35", 0 ],
													"midpoints" : [ 648.25, 536.25, 736.75, 536.25 ],
													"order" : 0,
													"source" : [ "obj-30", 0 ]
												}

											}
, 											{
												"patchline" : 												{
													"destination" : [ "obj-36", 1 ],
													"source" : [ "obj-35", 0 ]
												}

											}
, 											{
												"patchline" : 												{
													"destination" : [ "obj-19", 1 ],
													"midpoints" : [ 676.25, 1077.5, 297.75, 1077.5 ],
													"source" : [ "obj-36", 0 ]
												}

											}
, 											{
												"patchline" : 												{
													"destination" : [ "obj-35", 1 ],
													"source" : [ "obj-37", 0 ]
												}

											}
, 											{
												"patchline" : 												{
													"destination" : [ "obj-9", 0 ],
													"midpoints" : [ 1346.5, 1125.0, 1076.5, 1125.0 ],
													"source" : [ "obj-38", 0 ]
												}

											}
, 											{
												"patchline" : 												{
													"destination" : [ "obj-30", 0 ],
													"midpoints" : [ 196.75, 309.0, 594.0, 309.0, 594.0, 456.0, 648.25, 456.0 ],
													"order" : 0,
													"source" : [ "obj-4", 0 ]
												}

											}
, 											{
												"patchline" : 												{
													"destination" : [ "obj-40", 0 ],
													"order" : 1,
													"source" : [ "obj-4", 0 ]
												}

											}
, 											{
												"patchline" : 												{
													"destination" : [ "obj-19", 0 ],
													"midpoints" : [ 196.75, 767.0, 287.25, 767.0 ],
													"source" : [ "obj-40", 0 ]
												}

											}
, 											{
												"patchline" : 												{
													"destination" : [ "obj-20", 0 ],
													"source" : [ "obj-9", 0 ]
												}

											}
 ],
										"styles" : [ 											{
												"name" : "body",
												"default" : 												{
													"textcolor" : [ 1.0, 1.0, 1.0, 1.0 ],
													"fontname" : [ "Source Code Pro" ]
												}
,
												"parentstyle" : "",
												"multi" : 0
											}
, 											{
												"name" : "body-1",
												"default" : 												{
													"textcolor" : [ 1.0, 1.0, 1.0, 1.0 ],
													"fontsize" : [ 12.0 ],
													"fontname" : [ "Source Code Pro" ]
												}
,
												"comment" : 												{
													"textcolor" : [ 1.0, 1.0, 1.0, 1.0 ],
													"fontsize" : [ 12.0 ],
													"fontname" : [ "Avenir Book" ]
												}
,
												"parentstyle" : "",
												"multi" : 0
											}
, 											{
												"name" : "body-1-1",
												"default" : 												{
													"textcolor" : [ 1.0, 1.0, 1.0, 1.0 ],
													"fontname" : [ "Source Code Pro" ]
												}
,
												"parentstyle" : "",
												"multi" : 0
											}
, 											{
												"name" : "comment",
												"default" : 												{
													"textcolor" : [ 1.0, 1.0, 1.0, 1.0 ],
													"fontsize" : [ 10.0 ],
													"fontname" : [ "Source Code Pro" ]
												}
,
												"comment" : 												{
													"textcolor" : [ 1.0, 1.0, 1.0, 1.0 ],
													"fontsize" : [ 10.0 ],
													"fontname" : [ "Avenir Book" ]
												}
,
												"parentstyle" : "",
												"multi" : 0
											}
, 											{
												"name" : "heading",
												"default" : 												{
													"textcolor" : [ 1.0, 1.0, 1.0, 1.0 ],
													"fontface" : [ 0 ],
													"fontsize" : [ 16.0 ],
													"fontname" : [ "Source Code Pro" ]
												}
,
												"parentstyle" : "",
												"multi" : 0
											}
, 											{
												"name" : "heading-1",
												"default" : 												{
													"textcolor" : [ 1.0, 1.0, 1.0, 1.0 ],
													"fontface" : [ 0 ],
													"fontsize" : [ 16.0 ],
													"fontname" : [ "Avenir Book" ]
												}
,
												"parentstyle" : "",
												"multi" : 0
											}
, 											{
												"name" : "heading-1-1",
												"default" : 												{
													"textcolor" : [ 1.0, 1.0, 1.0, 1.0 ],
													"fontface" : [ 0 ],
													"fontsize" : [ 16.0 ],
													"fontname" : [ "Source Code Pro" ]
												}
,
												"parentstyle" : "",
												"multi" : 0
											}
, 											{
												"name" : "newobjBlue-1",
												"default" : 												{
													"accentcolor" : [ 0.317647, 0.654902, 0.976471, 1.0 ]
												}
,
												"parentstyle" : "",
												"multi" : 0
											}
, 											{
												"name" : "newobjYellow-1",
												"default" : 												{
													"fontsize" : [ 12.059008 ],
													"accentcolor" : [ 0.82517, 0.78181, 0.059545, 1.0 ]
												}
,
												"parentstyle" : "",
												"multi" : 0
											}
, 											{
												"name" : "numberGold-1",
												"default" : 												{
													"accentcolor" : [ 0.764706, 0.592157, 0.101961, 1.0 ]
												}
,
												"parentstyle" : "",
												"multi" : 0
											}
, 											{
												"name" : "teaching",
												"parentstyle" : "",
												"multi" : 0
											}
 ]
									}
,
									"patching_rect" : [ 349.0, 338.0, 99.0, 22.0 ],
									"saved_object_attributes" : 									{
										"description" : "",
										"digest" : "",
										"globalpatchername" : "",
										"tags" : ""
									}
,
									"text" : "p FMSynthPatch"
								}

							}
, 							{
								"box" : 								{
									"id" : "obj-9",
									"maxclass" : "newobj",
									"numinlets" : 3,
									"numoutlets" : 1,
									"outlettype" : [ "signal" ],
									"patching_rect" : [ 348.5, 469.0, 94.0, 22.0 ],
									"text" : "lores~ 1000 0.9"
								}

							}
, 							{
								"box" : 								{
									"comment" : "",
									"id" : "obj-8",
									"index" : 1,
									"maxclass" : "outlet",
									"numinlets" : 1,
									"numoutlets" : 0,
									"patching_rect" : [ 363.5, 750.0, 30.0, 30.0 ]
								}

							}
, 							{
								"box" : 								{
									"id" : "obj-5",
									"maxclass" : "newobj",
									"numinlets" : 1,
									"numoutlets" : 1,
									"outlettype" : [ "" ],
									"patching_rect" : [ 349.0, 284.0, 34.0, 22.0 ],
									"text" : "mtof"
								}

							}
, 							{
								"box" : 								{
									"id" : "obj-2",
									"maxclass" : "newobj",
									"numinlets" : 1,
									"numoutlets" : 3,
									"outlettype" : [ "", "", "" ],
									"patching_rect" : [ 349.0, 160.0, 43.0, 22.0 ],
									"text" : "unjoin"
								}

							}
, 							{
								"box" : 								{
									"comment" : "",
									"id" : "obj-1",
									"index" : 1,
									"maxclass" : "inlet",
									"numinlets" : 0,
									"numoutlets" : 1,
									"outlettype" : [ "" ],
									"patching_rect" : [ 349.0, 8.0, 30.0, 30.0 ]
								}

							}
, 							{
								"box" : 								{
									"angle" : 270.0,
									"grad1" : [ 0.92549, 0.364706, 0.341176, 1.0 ],
									"grad2" : [ 0.290196, 0.309804, 0.301961, 1.0 ],
									"id" : "obj-10",
									"maxclass" : "panel",
									"mode" : 1,
									"numinlets" : 1,
									"numoutlets" : 0,
									"patching_rect" : [ 752.0, 79.0, 500.0, 253.5 ],
									"proportion" : 0.39
								}

							}
, 							{
								"box" : 								{
									"angle" : 270.0,
									"grad1" : [ 0.952941, 0.564706, 0.098039, 1.0 ],
									"grad2" : [ 0.290196, 0.309804, 0.301961, 1.0 ],
									"id" : "obj-28",
									"maxclass" : "panel",
									"mode" : 1,
									"numinlets" : 1,
									"numoutlets" : 0,
									"patching_rect" : [ 161.5, 418.0, 569.0, 293.0 ],
									"proportion" : 0.39
								}

							}
, 							{
								"box" : 								{
									"angle" : 270.0,
									"grad1" : [ 0.439216, 0.74902, 0.254902, 1.0 ],
									"grad2" : [ 0.290196, 0.309804, 0.301961, 1.0 ],
									"id" : "obj-30",
									"maxclass" : "panel",
									"mode" : 1,
									"numinlets" : 1,
									"numoutlets" : 0,
									"patching_rect" : [ 161.5, 79.0, 569.0, 333.0 ],
									"proportion" : 0.39
								}

							}
, 							{
								"box" : 								{
									"angle" : 270.0,
									"grad1" : [ 0.65098, 0.666667, 0.662745, 1.0 ],
									"grad2" : [ 0.290196, 0.309804, 0.301961, 1.0 ],
									"id" : "obj-44",
									"maxclass" : "panel",
									"mode" : 1,
									"numinlets" : 1,
									"numoutlets" : 0,
									"patching_rect" : [ 78.0, 47.0, 1254.0, 687.0 ],
									"proportion" : 0.39
								}

							}
 ],
						"lines" : [ 							{
								"patchline" : 								{
									"destination" : [ "obj-14", 0 ],
									"source" : [ "obj-1", 0 ]
								}

							}
, 							{
								"patchline" : 								{
									"destination" : [ "obj-4", 0 ],
									"source" : [ "obj-13", 0 ]
								}

							}
, 							{
								"patchline" : 								{
									"destination" : [ "obj-8", 0 ],
									"midpoints" : [ 358.5, 554.5, 373.0, 554.5 ],
									"source" : [ "obj-14", 0 ]
								}

							}
, 							{
								"patchline" : 								{
									"destination" : [ "obj-14", 3 ],
									"source" : [ "obj-15", 0 ]
								}

							}
, 							{
								"patchline" : 								{
									"destination" : [ "obj-19", 0 ],
									"order" : 1,
									"source" : [ "obj-18", 0 ]
								}

							}
, 							{
								"patchline" : 								{
									"destination" : [ "obj-40", 0 ],
									"midpoints" : [ 563.0, 245.5, 650.0, 245.5 ],
									"order" : 0,
									"source" : [ "obj-18", 0 ]
								}

							}
, 							{
								"patchline" : 								{
									"destination" : [ "obj-22", 1 ],
									"midpoints" : [ 562.5, 516.0, 381.5, 516.0 ],
									"source" : [ "obj-19", 0 ]
								}

							}
, 							{
								"patchline" : 								{
									"destination" : [ "obj-18", 0 ],
									"midpoints" : [ 370.5, 197.5, 563.0, 197.5 ],
									"source" : [ "obj-2", 1 ]
								}

							}
, 							{
								"patchline" : 								{
									"destination" : [ "obj-7", 0 ],
									"source" : [ "obj-2", 0 ]
								}

							}
, 							{
								"patchline" : 								{
									"destination" : [ "obj-24", 0 ],
									"source" : [ "obj-20", 0 ]
								}

							}
, 							{
								"patchline" : 								{
									"destination" : [ "obj-8", 0 ],
									"source" : [ "obj-22", 0 ]
								}

							}
, 							{
								"patchline" : 								{
									"destination" : [ "obj-14", 1 ],
									"midpoints" : [ 414.0, 227.5, 385.166666666666686, 227.5 ],
									"source" : [ "obj-23", 0 ]
								}

							}
, 							{
								"patchline" : 								{
									"destination" : [ "obj-14", 2 ],
									"midpoints" : [ 521.0, 227.5, 411.833333333333314, 227.5 ],
									"source" : [ "obj-25", 0 ]
								}

							}
, 							{
								"patchline" : 								{
									"destination" : [ "obj-3", 0 ],
									"source" : [ "obj-33", 0 ]
								}

							}
, 							{
								"patchline" : 								{
									"destination" : [ "obj-24", 0 ],
									"source" : [ "obj-34", 0 ]
								}

							}
, 							{
								"patchline" : 								{
									"destination" : [ "obj-3", 0 ],
									"source" : [ "obj-4", 0 ]
								}

							}
, 							{
								"patchline" : 								{
									"destination" : [ "obj-20", 0 ],
									"source" : [ "obj-6", 0 ]
								}

							}
, 							{
								"patchline" : 								{
									"destination" : [ "obj-15", 0 ],
									"source" : [ "obj-7", 0 ]
								}

							}
, 							{
								"patchline" : 								{
									"destination" : [ "obj-22", 0 ],
									"midpoints" : [ 358.0, 519.5, 371.0, 519.5 ],
									"source" : [ "obj-9", 0 ]
								}

							}
 ],
						"styles" : [ 							{
								"name" : "body",
								"default" : 								{
									"textcolor" : [ 1.0, 1.0, 1.0, 1.0 ],
									"fontsize" : [ 12.0 ],
									"fontname" : [ "Source Code Pro" ]
								}
,
								"comment" : 								{
									"textcolor" : [ 1.0, 1.0, 1.0, 1.0 ],
									"fontsize" : [ 12.0 ],
									"fontname" : [ "Avenir Book" ]
								}
,
								"parentstyle" : "",
								"multi" : 0
							}
, 							{
								"name" : "body-1",
								"default" : 								{
									"textcolor" : [ 1.0, 1.0, 1.0, 1.0 ],
									"fontname" : [ "Source Code Pro" ]
								}
,
								"parentstyle" : "",
								"multi" : 0
							}
, 							{
								"name" : "body-1-1",
								"default" : 								{
									"textcolor" : [ 1.0, 1.0, 1.0, 1.0 ],
									"fontsize" : [ 12.0 ],
									"fontname" : [ "Source Code Pro" ]
								}
,
								"comment" : 								{
									"textcolor" : [ 1.0, 1.0, 1.0, 1.0 ],
									"fontsize" : [ 12.0 ],
									"fontname" : [ "Avenir Book" ]
								}
,
								"parentstyle" : "",
								"multi" : 0
							}
, 							{
								"name" : "body-2",
								"default" : 								{
									"textcolor" : [ 1.0, 1.0, 1.0, 1.0 ],
									"fontname" : [ "Source Code Pro" ]
								}
,
								"parentstyle" : "",
								"multi" : 0
							}
, 							{
								"name" : "comment",
								"default" : 								{
									"textcolor" : [ 1.0, 1.0, 1.0, 1.0 ],
									"fontsize" : [ 10.0 ],
									"fontname" : [ "Source Code Pro" ]
								}
,
								"comment" : 								{
									"textcolor" : [ 1.0, 1.0, 1.0, 1.0 ],
									"fontsize" : [ 10.0 ],
									"fontname" : [ "Avenir Book" ]
								}
,
								"parentstyle" : "",
								"multi" : 0
							}
, 							{
								"name" : "heading",
								"default" : 								{
									"textcolor" : [ 1.0, 1.0, 1.0, 1.0 ],
									"fontface" : [ 0 ],
									"fontsize" : [ 16.0 ],
									"fontname" : [ "Avenir Book" ]
								}
,
								"parentstyle" : "",
								"multi" : 0
							}
, 							{
								"name" : "heading-1",
								"default" : 								{
									"textcolor" : [ 1.0, 1.0, 1.0, 1.0 ],
									"fontface" : [ 0 ],
									"fontsize" : [ 16.0 ],
									"fontname" : [ "Source Code Pro" ]
								}
,
								"parentstyle" : "",
								"multi" : 0
							}
, 							{
								"name" : "heading-1-1",
								"default" : 								{
									"textcolor" : [ 1.0, 1.0, 1.0, 1.0 ],
									"fontface" : [ 0 ],
									"fontsize" : [ 16.0 ],
									"fontname" : [ "Avenir Book" ]
								}
,
								"parentstyle" : "",
								"multi" : 0
							}
, 							{
								"name" : "heading-2",
								"default" : 								{
									"textcolor" : [ 1.0, 1.0, 1.0, 1.0 ],
									"fontface" : [ 0 ],
									"fontsize" : [ 16.0 ],
									"fontname" : [ "Source Code Pro" ]
								}
,
								"parentstyle" : "",
								"multi" : 0
							}
, 							{
								"name" : "newobjBlue-1",
								"default" : 								{
									"accentcolor" : [ 0.317647, 0.654902, 0.976471, 1.0 ]
								}
,
								"parentstyle" : "",
								"multi" : 0
							}
, 							{
								"name" : "newobjYellow-1",
								"default" : 								{
									"fontsize" : [ 12.059008 ],
									"accentcolor" : [ 0.82517, 0.78181, 0.059545, 1.0 ]
								}
,
								"parentstyle" : "",
								"multi" : 0
							}
, 							{
								"name" : "numberGold-1",
								"default" : 								{
									"accentcolor" : [ 0.764706, 0.592157, 0.101961, 1.0 ]
								}
,
								"parentstyle" : "",
								"multi" : 0
							}
, 							{
								"name" : "teaching",
								"parentstyle" : "",
								"multi" : 0
							}
 ]
					}
,
					"patching_rect" : [ 322.5, 1125.0, 171.0, 22.0 ],
					"saved_object_attributes" : 					{
						"description" : "",
						"digest" : "",
						"globalpatchername" : "",
						"tags" : ""
					}
,
					"text" : "p FMsynth"
				}

			}
, 			{
				"box" : 				{
					"format" : 6,
					"id" : "obj-43",
					"maxclass" : "flonum",
					"numinlets" : 1,
					"numoutlets" : 2,
					"outlettype" : [ "", "bang" ],
					"parameter_enable" : 0,
					"patching_rect" : [ 689.5, 869.0, 50.0, 22.0 ]
				}

			}
, 			{
				"box" : 				{
					"format" : 6,
					"id" : "obj-38",
					"maxclass" : "flonum",
					"numinlets" : 1,
					"numoutlets" : 2,
					"outlettype" : [ "", "bang" ],
					"parameter_enable" : 0,
					"patching_rect" : [ 509.0, 869.0, 50.0, 22.0 ]
				}

			}
, 			{
				"box" : 				{
					"angle" : 270.0,
					"bgcolor" : [ 0.423529411764706, 0.36078431372549, 0.074509803921569, 1.0 ],
					"id" : "obj-37",
					"maxclass" : "panel",
					"mode" : 0,
					"numinlets" : 1,
					"numoutlets" : 0,
					"patching_rect" : [ 17.5, 6.0, 1356.0, 405.0 ],
					"proportion" : 0.5
				}

			}
, 			{
				"box" : 				{
					"angle" : 270.0,
					"grad1" : [ 0.309803921568627, 0.533333333333333, 0.250980392156863, 1.0 ],
					"grad2" : [ 0.2, 0.2, 0.2, 1.0 ],
					"id" : "obj-41",
					"maxclass" : "panel",
					"mode" : 1,
					"numinlets" : 1,
					"numoutlets" : 0,
					"patching_rect" : [ 192.0, 420.0, 1197.0, 638.0 ],
					"proportion" : 0.5
				}

			}
, 			{
				"box" : 				{
					"angle" : 270.0,
					"grad1" : [ 0.886274509803922, 0.156862745098039, 0.313725490196078, 1.0 ],
					"grad2" : [ 0.2, 0.2, 0.2, 1.0 ],
					"id" : "obj-44",
					"maxclass" : "panel",
					"mode" : 1,
					"numinlets" : 1,
					"numoutlets" : 0,
					"patching_rect" : [ 192.0, 1096.0, 680.0, 322.0 ],
					"proportion" : 0.5
				}

			}
 ],
		"lines" : [ 			{
				"patchline" : 				{
					"destination" : [ "obj-8", 1 ],
					"order" : 0,
					"source" : [ "obj-1", 0 ]
				}

			}
, 			{
				"patchline" : 				{
					"destination" : [ "obj-8", 0 ],
					"order" : 1,
					"source" : [ "obj-1", 0 ]
				}

			}
, 			{
				"patchline" : 				{
					"destination" : [ "obj-6", 1 ],
					"midpoints" : [ 24.5, 1350.0, 358.0, 1350.0 ],
					"order" : 0,
					"source" : [ "obj-12", 0 ]
				}

			}
, 			{
				"patchline" : 				{
					"destination" : [ "obj-6", 0 ],
					"midpoints" : [ 24.5, 1331.0, 332.0, 1331.0 ],
					"order" : 1,
					"source" : [ "obj-12", 0 ]
				}

			}
, 			{
				"patchline" : 				{
					"destination" : [ "obj-18", 0 ],
					"source" : [ "obj-15", 0 ]
				}

			}
, 			{
				"patchline" : 				{
					"destination" : [ "obj-32", 0 ],
					"source" : [ "obj-17", 0 ]
				}

			}
, 			{
				"patchline" : 				{
					"destination" : [ "obj-35", 0 ],
					"source" : [ "obj-17", 1 ]
				}

			}
, 			{
				"patchline" : 				{
					"destination" : [ "obj-38", 0 ],
					"source" : [ "obj-18", 0 ]
				}

			}
, 			{
				"patchline" : 				{
					"destination" : [ "obj-43", 0 ],
					"source" : [ "obj-19", 0 ]
				}

			}
, 			{
				"patchline" : 				{
					"destination" : [ "obj-40", 0 ],
					"source" : [ "obj-2", 0 ]
				}

			}
, 			{
				"patchline" : 				{
					"destination" : [ "obj-17", 0 ],
					"source" : [ "obj-21", 0 ]
				}

			}
, 			{
				"patchline" : 				{
					"destination" : [ "obj-23", 0 ],
					"source" : [ "obj-22", 0 ]
				}

			}
, 			{
				"patchline" : 				{
					"destination" : [ "obj-40", 0 ],
					"midpoints" : [ 705.5, 134.0, 75.5, 134.0 ],
					"source" : [ "obj-23", 0 ]
				}

			}
, 			{
				"patchline" : 				{
					"destination" : [ "obj-1", 0 ],
					"midpoints" : [ 867.5, 1079.0, 332.0, 1079.0 ],
					"order" : 1,
					"source" : [ "obj-24", 0 ]
				}

			}
, 			{
				"patchline" : 				{
					"destination" : [ "obj-4", 0 ],
					"order" : 0,
					"source" : [ "obj-24", 0 ]
				}

			}
, 			{
				"patchline" : 				{
					"destination" : [ "obj-21", 0 ],
					"midpoints" : [ 518.5, 466.5, 1229.5, 466.5 ],
					"order" : 0,
					"source" : [ "obj-26", 0 ]
				}

			}
, 			{
				"patchline" : 				{
					"destination" : [ "obj-5", 0 ],
					"order" : 1,
					"source" : [ "obj-26", 0 ]
				}

			}
, 			{
				"patchline" : 				{
					"destination" : [ "obj-24", 0 ],
					"source" : [ "obj-27", 0 ]
				}

			}
, 			{
				"patchline" : 				{
					"destination" : [ "obj-27", 0 ],
					"source" : [ "obj-28", 0 ]
				}

			}
, 			{
				"patchline" : 				{
					"destination" : [ "obj-19", 0 ],
					"source" : [ "obj-33", 0 ]
				}

			}
, 			{
				"patchline" : 				{
					"destination" : [ "obj-12", 0 ],
					"midpoints" : [ 114.5, 325.5, 24.5, 325.5 ],
					"source" : [ "obj-36", 1 ]
				}

			}
, 			{
				"patchline" : 				{
					"destination" : [ "obj-42", 0 ],
					"source" : [ "obj-36", 0 ]
				}

			}
, 			{
				"patchline" : 				{
					"destination" : [ "obj-1", 1 ],
					"midpoints" : [ 518.5, 1094.0, 408.0, 1094.0 ],
					"source" : [ "obj-38", 0 ]
				}

			}
, 			{
				"patchline" : 				{
					"destination" : [ "obj-40", 0 ],
					"midpoints" : [ 157.0, 100.0, 75.5, 100.0 ],
					"source" : [ "obj-39", 0 ]
				}

			}
, 			{
				"patchline" : 				{
					"destination" : [ "obj-36", 0 ],
					"source" : [ "obj-40", 0 ]
				}

			}
, 			{
				"patchline" : 				{
					"destination" : [ "obj-46", 0 ],
					"source" : [ "obj-40", 1 ]
				}

			}
, 			{
				"patchline" : 				{
					"destination" : [ "obj-26", 0 ],
					"midpoints" : [ 350.5, 458.0, 458.5, 458.0, 458.5, 422.0, 518.5, 422.0 ],
					"order" : 0,
					"source" : [ "obj-42", 0 ]
				}

			}
, 			{
				"patchline" : 				{
					"destination" : [ "obj-7", 0 ],
					"order" : 1,
					"source" : [ "obj-42", 0 ]
				}

			}
, 			{
				"patchline" : 				{
					"destination" : [ "obj-1", 2 ],
					"midpoints" : [ 699.0, 1108.0, 484.0, 1108.0 ],
					"source" : [ "obj-43", 0 ]
				}

			}
, 			{
				"patchline" : 				{
					"destination" : [ "obj-40", 0 ],
					"midpoints" : [ 249.0, 100.0, 75.5, 100.0 ],
					"source" : [ "obj-47", 0 ]
				}

			}
, 			{
				"patchline" : 				{
					"destination" : [ "obj-40", 0 ],
					"midpoints" : [ 390.5, 100.0, 75.5, 100.0 ],
					"source" : [ "obj-48", 0 ]
				}

			}
, 			{
				"patchline" : 				{
					"destination" : [ "obj-15", 0 ],
					"order" : 2,
					"source" : [ "obj-5", 0 ]
				}

			}
, 			{
				"patchline" : 				{
					"destination" : [ "obj-28", 0 ],
					"order" : 1,
					"source" : [ "obj-5", 1 ]
				}

			}
, 			{
				"patchline" : 				{
					"destination" : [ "obj-31", 0 ],
					"order" : 0,
					"source" : [ "obj-5", 1 ]
				}

			}
, 			{
				"patchline" : 				{
					"destination" : [ "obj-33", 0 ],
					"midpoints" : [ 518.5, 527.0, 613.5, 527.0 ],
					"order" : 1,
					"source" : [ "obj-5", 0 ]
				}

			}
, 			{
				"patchline" : 				{
					"destination" : [ "obj-34", 0 ],
					"midpoints" : [ 518.5, 527.0, 711.5, 527.0 ],
					"order" : 0,
					"source" : [ "obj-5", 0 ]
				}

			}
, 			{
				"patchline" : 				{
					"destination" : [ "obj-6", 1 ],
					"source" : [ "obj-8", 1 ]
				}

			}
, 			{
				"patchline" : 				{
					"destination" : [ "obj-6", 0 ],
					"source" : [ "obj-8", 0 ]
				}

			}
, 			{
				"patchline" : 				{
					"destination" : [ "obj-40", 0 ],
					"midpoints" : [ 518.5, 100.0, 75.5, 100.0 ],
					"source" : [ "obj-9", 0 ]
				}

			}
 ],
		"parameters" : 		{
			"obj-8" : [ "live.gain~", "live.gain~", 0 ],
			"parameterbanks" : 			{

			}

		}
,
		"dependency_cache" : [ 			{
				"name" : "server.js",
				"bootpath" : "~/Downloads/MMT-Project/Posenet-Max-p5",
				"patcherrelativepath" : "./Posenet-Max-p5",
				"type" : "TEXT",
				"implicit" : 1
			}
, 			{
				"name" : "n4m.monitor.maxpat",
				"bootpath" : "C74:/packages/Node For Max/patchers/debug-monitor",
				"type" : "JSON",
				"implicit" : 1
			}
, 			{
				"name" : "resize_n4m_monitor_patcher.js",
				"bootpath" : "C74:/packages/Node For Max/patchers/debug-monitor",
				"type" : "TEXT",
				"implicit" : 1
			}
, 			{
				"name" : "fit_jweb_to_bounds.js",
				"bootpath" : "C74:/packages/Node For Max/patchers/debug-monitor",
				"type" : "TEXT",
				"implicit" : 1
			}
, 			{
				"name" : "dict-array.js",
				"bootpath" : "~/Downloads/MMT-Project",
				"patcherrelativepath" : ".",
				"type" : "TEXT",
				"implicit" : 1
			}
 ],
		"autosave" : 0
	}

}
